<svg width="8" height="8" viewBox="0 0 8 8" fill="none" xmlns="http://www.w3.org/2000/svg">
<path d="M4.754 0.912974C4.79267 0.950642 4.958 1.09287 5.094 1.22536C5.94933 2.00211 7.34933 4.02841 7.77667 5.08898C7.84533 5.25004 7.99067 5.65725 8 5.87482C8 6.08329 7.952 6.28203 7.85467 6.47167C7.71867 6.70807 7.50467 6.89771 7.252 7.00162C7.07667 7.06852 6.552 7.17243 6.54267 7.17243C5.96867 7.27634 5.036 7.3335 4.00533 7.3335C3.02333 7.3335 2.12867 7.27634 1.546 7.19127C1.53667 7.18152 0.884666 7.07761 0.661333 6.96396C0.253333 6.75548 0 6.34827 0 5.91249V5.87482C0.01 5.59101 0.263334 4.99416 0.272667 4.99416C0.700667 3.99075 2.032 2.0112 2.91667 1.21562C2.91667 1.21562 3.144 0.991558 3.286 0.894139C3.49 0.742167 3.74267 0.66683 3.99533 0.66683C4.27733 0.66683 4.54 0.751909 4.754 0.912974Z" fill="#3CB29A"/>
</svg>
