<svg width="16" height="16" viewBox="0 0 16 16" fill="none" xmlns="http://www.w3.org/2000/svg">
<path d="M7.5 2C2.62535 2 1 3.62535 1 8.5C1 13.3746 2.62535 15 7.5 15C12.3746 15 14 13.3746 14 8.5" stroke="#4CAF50" stroke-linecap="round" stroke-linejoin="round"/>
<path fill-rule="evenodd" clip-rule="evenodd" d="M12.7898 3.09201C12.092 2.47433 11.026 2.53898 10.4084 3.23677C10.4084 3.23677 7.33825 6.7046 6.27365 7.90833C5.20765 9.11136 5.98906 10.7733 5.98906 10.7733C5.98906 10.7733 7.74862 11.3305 8.79846 10.1443C9.849 8.95817 12.9346 5.47347 12.9346 5.47347C13.5522 4.77569 13.4869 3.70969 12.7898 3.09201Z" stroke="#4CAF50" stroke-linecap="round" stroke-linejoin="round"/>
<path d="M9.61426 4.14453L12.1405 6.38123" stroke="#4CAF50" stroke-linecap="round" stroke-linejoin="round"/>
</svg>
