<svg width="48" height="48" viewBox="0 0 48 48" fill="none" xmlns="http://www.w3.org/2000/svg">
<rect width="48" height="48" rx="8" fill="#4CAF50"/>
<path fill-rule="evenodd" clip-rule="evenodd" d="M29.3879 25.708C31.1039 25.708 32.4999 27.097 32.4999 28.804C32.4999 30.511 31.1039 31.9 29.3879 31.9C27.6709 31.9 26.2739 30.511 26.2739 28.804C26.2739 27.097 27.6709 25.708 29.3879 25.708ZM29.3879 27.208C28.4979 27.208 27.7739 27.924 27.7739 28.804C27.7739 29.685 28.4979 30.4 29.3879 30.4C30.2769 30.4 30.9999 29.685 30.9999 28.804C30.9999 27.924 30.2769 27.208 29.3879 27.208ZM22.0803 28.0928C22.4943 28.0928 22.8303 28.4288 22.8303 28.8428C22.8303 29.2568 22.4943 29.5928 22.0803 29.5928H15.7793C15.3653 29.5928 15.0293 29.2568 15.0293 28.8428C15.0293 28.4288 15.3653 28.0928 15.7793 28.0928H22.0803ZM18.113 16C19.83 16 21.226 17.39 21.226 19.097C21.226 20.804 19.83 22.192 18.113 22.192C16.397 22.192 15 20.804 15 19.097C15 17.39 16.397 16 18.113 16ZM18.113 17.5C17.224 17.5 16.5 18.216 16.5 19.097C16.5 19.977 17.224 20.692 18.113 20.692C19.003 20.692 19.726 19.977 19.726 19.097C19.726 18.216 19.003 17.5 18.113 17.5ZM31.1911 18.4004C31.6051 18.4004 31.9411 18.7364 31.9411 19.1504C31.9411 19.5644 31.6051 19.9004 31.1911 19.9004H24.8911C24.4771 19.9004 24.1411 19.5644 24.1411 19.1504C24.1411 18.7364 24.4771 18.4004 24.8911 18.4004H31.1911Z" fill="white"/>
</svg>
