<svg width="18" height="20" viewBox="0 0 18 20" fill="none" xmlns="http://www.w3.org/2000/svg">
<path fill-rule="evenodd" clip-rule="evenodd" d="M9.07797 7.58594C10.3811 7.58594 11.4372 8.63923 11.4372 9.93888C11.4372 11.2385 10.3811 12.2918 9.07797 12.2918C7.77485 12.2918 6.71875 11.2385 6.71875 9.93888C6.71875 8.63923 7.77485 7.58594 9.07797 7.58594Z" stroke="#AAB2BD" stroke-linecap="round" stroke-linejoin="round"/>
<path fill-rule="evenodd" clip-rule="evenodd" d="M16.7841 5.47082C16.139 4.3487 14.711 3.96474 13.5949 4.61273C12.6241 5.17518 11.4108 4.47142 11.4108 3.34558C11.4108 2.05054 10.365 1 9.0758 1C7.78662 1 6.74083 2.05054 6.74083 3.34558C6.74083 4.47142 5.52754 5.17518 4.55765 4.61273C3.4406 3.96474 2.0126 4.3487 1.36754 5.47082C0.723417 6.59294 1.10564 8.02743 2.22268 8.67449C3.19258 9.23788 3.19258 10.6445 2.22268 11.2079C1.10564 11.8558 0.723417 13.2903 1.36754 14.4115C2.0126 15.5337 3.4406 15.9176 4.55672 15.2706H4.55765C5.52754 14.7072 6.74083 15.4109 6.74083 16.5368C6.74083 17.8318 7.78662 18.8824 9.0758 18.8824C10.365 18.8824 11.4108 17.8318 11.4108 16.5368C11.4108 15.4109 12.6241 14.7072 13.5949 15.2706C14.711 15.9176 16.139 15.5337 16.7841 14.4115C17.4291 13.2903 17.046 11.8558 15.9298 11.2079H15.9289C14.959 10.6445 14.959 9.23788 15.9298 8.67449C17.046 8.02743 17.4291 6.59294 16.7841 5.47082Z" stroke="#AAB2BD" stroke-linecap="round" stroke-linejoin="round"/>
</svg>
