<svg width="18" height="15" viewBox="0 0 18 15" fill="none" xmlns="http://www.w3.org/2000/svg">
<path fill-rule="evenodd" clip-rule="evenodd" d="M8.97071 14.2543C6.45225 14.2543 4.30078 13.8733 4.30078 12.3477C4.30078 10.8222 6.43825 9.49414 8.97071 9.49414C11.4892 9.49414 13.6406 10.8097 13.6406 12.3345C13.6406 13.8593 11.5032 14.2543 8.97071 14.2543Z" stroke="#AAB2BD" stroke-linecap="round" stroke-linejoin="round"/>
<path fill-rule="evenodd" clip-rule="evenodd" d="M8.97404 7.31981C10.6271 7.31981 11.9676 5.9801 11.9676 4.32704C11.9676 2.67398 10.6271 1.3335 8.97404 1.3335C7.32098 1.3335 5.98048 2.67398 5.98048 4.32704C5.97583 5.97388 7.30543 7.31436 8.95304 7.31981H8.97404Z" stroke="#AAB2BD" stroke-linecap="round" stroke-linejoin="round"/>
<path d="M13.9377 6.49754C14.8995 6.24018 15.6086 5.36311 15.6086 4.31887C15.6086 3.22953 14.8365 2.3198 13.8086 2.10986" stroke="#AAB2BD" stroke-linecap="round" stroke-linejoin="round"/>
<path d="M14.3906 8.94922C15.7544 8.94922 16.9192 9.87372 16.9192 10.6995C16.9192 11.1854 16.5172 11.7149 15.9076 11.858" stroke="#AAB2BD" stroke-linecap="round" stroke-linejoin="round"/>
<path d="M4.00375 6.49754C3.04115 6.24018 2.33203 5.36311 2.33203 4.31887C2.33203 3.22953 3.10491 2.3198 4.13204 2.10986" stroke="#AAB2BD" stroke-linecap="round" stroke-linejoin="round"/>
<path d="M3.55201 8.94922C2.1882 8.94922 1.02344 9.87372 1.02344 10.6995C1.02344 11.1854 1.42543 11.7149 2.0358 11.858" stroke="#AAB2BD" stroke-linecap="round" stroke-linejoin="round"/>
</svg>
