<svg width="24" height="24" viewBox="0 0 24 24" fill="none" xmlns="http://www.w3.org/2000/svg">
<path d="M24 12C24 18.6273 18.6273 24 12 24C5.37267 24 0 18.6273 0 12C0 5.37267 5.37267 0 12 0C18.6273 0 24 5.37267 24 12Z" fill="#FFCC4D"/>
<path fill-rule="evenodd" clip-rule="evenodd" d="M0.826531 7.34497C0.986531 7.5043 1.7852 7.98297 1.94453 8.46164C2.10453 8.93964 2.42453 11.651 3.3832 12.449C4.37186 13.2703 8.1012 12.965 8.8152 12.609C10.4132 11.8123 10.6092 9.5883 10.8919 8.46164C11.0512 7.82364 12.0099 7.82364 12.0099 7.82364C12.0099 7.82364 12.9685 7.82364 13.1285 8.46097C13.4112 9.5883 13.6085 11.8123 15.2052 12.6083C15.9199 12.965 19.6492 13.271 20.6392 12.4496C21.5965 11.6516 21.9159 8.9403 22.0759 8.46164C22.2345 7.98364 23.0345 7.50497 23.1939 7.34564C23.3545 7.1863 23.3545 6.5483 23.1939 6.3883C22.8745 6.06964 19.1045 5.78564 15.0452 6.22897C14.2352 6.31764 13.9272 6.54764 12.0092 6.54764C10.0925 6.54764 9.7832 6.31697 8.97386 6.22897C4.9172 5.78497 1.14653 6.06897 0.826531 6.38764C0.667198 6.54697 0.667198 7.18564 0.826531 7.34497Z" fill="#292F33"/>
<path d="M18.2247 15.7517C18.106 15.6444 17.9287 15.6377 17.8014 15.7324C17.7754 15.7517 15.1867 17.6657 12.0014 17.6657C8.82402 17.6657 6.22669 15.7517 6.20135 15.7324C6.07402 15.6377 5.89669 15.6457 5.77802 15.7517C5.66002 15.8584 5.63335 16.0344 5.71535 16.1704C5.80135 16.3137 7.86002 19.6657 12.0014 19.6657C16.1427 19.6657 18.202 16.3137 18.2874 16.1704C18.3694 16.0337 18.3434 15.8584 18.2247 15.7517Z" fill="#664500"/>
</svg>
